HIERARCHY
ROOT Hips
{
	OFFSET 0.000000 0.000000 0.000000
	CHANNELS 6 Xposition Yposition Zposition Zrotation Yrotation Xrotation 
	JOINT LHipJoint
	{
		OFFSET 0.000000 0.000000 0.000000
		CHANNELS 3 Zrotation Yrotation Xrotation
		JOINT LeftUpLeg
		{
			OFFSET 1.363060 -1.794630 0.839290
			CHANNELS 3 Zrotation Yrotation Xrotation
			JOINT LeftLeg
			{
				OFFSET 2.448110 -6.726130 0.000000
				CHANNELS 3 Zrotation Yrotation Xrotation
				JOINT LeftFoot
				{
					OFFSET 2.562200 -7.039590 0.000000
					CHANNELS 3 Zrotation Yrotation Xrotation
					JOINT LeftToeBase
					{
						OFFSET 0.157640 -0.433110 2.322550
						CHANNELS 3 Zrotation Yrotation Xrotation
						End Site
						{
							OFFSET 0.000000 0.000000 0.000000
						}
					}
				}
			}
		}
	}
	JOINT RHipJoint
	{
		OFFSET 0.000000 0.000000 0.000000
		CHANNELS 3 Zrotation Yrotation Xrotation
		JOINT RightUpLeg
		{
			OFFSET -1.305520 -1.794630 0.839290
			CHANNELS 3 Zrotation Yrotation Xrotation
			JOINT RightLeg
			{
				OFFSET -2.542530 -6.985550 0.000000
				CHANNELS 3 Zrotation Yrotation Xrotation
				JOINT RightFoot
				{
					OFFSET -2.568260 -7.056230 0.000000
					CHANNELS 3 Zrotation Yrotation Xrotation
					JOINT RightToeBase
					{
						OFFSET -0.164730 -0.452590 2.363150
						CHANNELS 3 Zrotation Yrotation Xrotation
						End Site
						{
							OFFSET 0.000000 0.000000 0.000000
						}
					}
				}
			}
		}
	}
	JOINT LowerBack
	{
		OFFSET 0.000000 0.000000 0.000000
		CHANNELS 3 Zrotation Yrotation Xrotation
		JOINT Spine
		{
			OFFSET 0.028270 2.035590 -0.193380
			CHANNELS 3 Zrotation Yrotation Xrotation
			JOINT Spine1
			{
				OFFSET 0.056720 2.048850 -0.042750
				CHANNELS 3 Zrotation Yrotation Xrotation
				JOINT Neck
				{
					OFFSET 0.000000 0.000000 0.000000
					CHANNELS 3 Zrotation Yrotation Xrotation
					JOINT Neck1
					{
						OFFSET -0.054170 1.746240 0.172020
						CHANNELS 3 Zrotation Yrotation Xrotation
						JOINT Head
						{
							OFFSET 0.104070 1.761360 -0.123970
							CHANNELS 3 Zrotation Yrotation Xrotation
							End Site
							{
								OFFSET 0.000000 0.000000 0.000000
							}
						}
					}
				}
				JOINT LeftShoulder
				{
					OFFSET 0.000000 0.000000 0.000000
					CHANNELS 3 Zrotation Yrotation Xrotation
					JOINT LeftArm
					{
						OFFSET 3.362410 1.200890 -0.311210
						CHANNELS 3 Zrotation Yrotation Xrotation
						JOINT LeftForeArm
						{
							OFFSET 4.983000 -0.000000 -0.000000
							CHANNELS 3 Zrotation Yrotation Xrotation
							JOINT LeftHand
							{
								OFFSET 3.483560 -0.000000 -0.000000
								CHANNELS 3 Zrotation Yrotation Xrotation
								JOINT LeftFingerBase
								{
									OFFSET 0.000000 0.000000 0.000000
									CHANNELS 3 Zrotation Yrotation Xrotation
									JOINT LeftHandIndex1
									{
										OFFSET 0.715260 -0.000000 -0.000000
										CHANNELS 3 Zrotation Yrotation Xrotation
										End Site
										{
											OFFSET 0.000000 0.000000 0.000000
										}
									}
								}
								JOINT LThumb
								{
									OFFSET 0.000000 0.000000 0.000000
									CHANNELS 3 Zrotation Yrotation Xrotation
									End Site
									{
										OFFSET 0.000000 0.000000 0.000000
									}
								}
							}
						}
					}
				}
				JOINT RightShoulder
				{
					OFFSET 0.000000 0.000000 0.000000
					CHANNELS 3 Zrotation Yrotation Xrotation
					JOINT RightArm
					{
						OFFSET -3.136600 1.374050 -0.404650
						CHANNELS 3 Zrotation Yrotation Xrotation
						JOINT RightForeArm
						{
							OFFSET -5.241900 -0.000000 -0.000000
							CHANNELS 3 Zrotation Yrotation Xrotation
							JOINT RightHand
							{
								OFFSET -3.444170 -0.000000 -0.000000
								CHANNELS 3 Zrotation Yrotation Xrotation
								JOINT RightFingerBase
								{
									OFFSET 0.000000 0.000000 0.000000
									CHANNELS 3 Zrotation Yrotation Xrotation
									JOINT RightHandIndex1
									{
										OFFSET -0.622530 -0.000000 -0.000000
										CHANNELS 3 Zrotation Yrotation Xrotation
										End Site
										{
											OFFSET 0.000000 0.000000 0.000000
										}
									}
								}
								JOINT RThumb
								{
									OFFSET 0.000000 0.000000 0.000000
									CHANNELS 3 Zrotation Yrotation Xrotation
									End Site
									{
										OFFSET 0.000000 0.000000 0.000000
									}
								}
							}
						}
					}
				}
			}
		}
	}
}
MOTION
Frames: 11
Frame Time: 0.008333
17.303664 18.399308 -10.023148 -8.349745 -5.831354 1.686539 14.881029 3.628195 -2.050632 -31.961223 -8.410460 -7.871253 9.122873 12.685374 44.411815 1.728218 -11.305184 -44.593581 0.005100 0.462900 1.272100 -11.213105 -3.831997 -1.425492 47.772516 6.332227 -8.284832 -8.763557 -12.697975 42.962962 -0.093870 13.379252 -37.076719 -0.378400 -3.950900 10.938500 -4.533069 -2.699907 -0.248702 23.119234 -3.080683 7.558160 -4.873065 -1.036008 -7.057640 -19.733815 -11.100054 -14.338034 8.062018 -14.389137 24.924916 3.051500 -7.215000 9.612200 -0.613713 0.038851 1.821366 -96.821428 6.156321 21.590870 21.371800 -31.200371 -3.448589 2.059046 5.846296 -0.663220 16.647772 30.618668 6.245000 -7.125000 0.000000 0.000000 -15.875700 54.831200 -3.906800 -2.116621 -0.531086 0.739972 90.650794 -1.381042 15.527532 -19.164008 25.778589 -2.609325 -1.835225 0.273604 -5.594286 -22.399817 12.148604 -4.402700 7.125000 0.000000 0.000000 4.593000 -17.400600 3.019000 
17.305380 18.397051 -10.025586 -8.377602 -5.824210 1.607342 14.859650 3.612639 -2.014329 -31.956095 -8.544872 -7.804554 9.142091 12.708987 44.486936 1.802465 -11.121127 -44.695268 0.007100 0.543800 1.494400 -11.215456 -3.833303 -1.430159 47.783927 6.205004 -8.223253 -8.758606 -12.693645 42.934286 -0.082788 13.374753 -37.004792 -0.376100 -3.938600 10.903900 -4.406045 -2.646681 -0.279110 22.982793 -3.062790 7.779465 -4.890858 -1.008073 -7.106224 -19.578671 -11.087250 -14.355103 7.933420 -14.372049 24.931167 3.007100 -7.212400 9.600100 -0.591348 0.054842 1.802991 -96.804284 5.929178 21.051907 21.234986 -31.074106 -3.425836 2.242129 5.610692 1.150775 16.828494 29.595150 6.118700 -7.125000 0.000000 0.000000 -15.262200 54.025700 -3.447600 -2.109165 -0.553133 0.724231 90.696466 -1.370510 15.531946 -19.194679 25.834139 -2.619053 -1.837831 0.299909 -5.627577 -22.452971 12.438867 -4.512000 7.125000 0.000000 0.000000 4.563400 -17.116100 3.028000 
17.303935 18.394432 -10.027482 -8.275340 -5.813138 1.558566 14.849128 3.607171 -2.004292 -32.069062 -8.570594 -7.736755 9.139341 12.705981 44.442895 1.840279 -11.018442 -44.720380 0.003400 0.376900 1.035600 -11.224532 -3.829933 -1.418962 47.703902 6.238598 -8.222131 -8.774868 -12.707965 43.004078 -0.076702 13.358479 -36.972863 -0.391100 -4.015600 11.120700 -4.472331 -2.621543 -0.310132 22.839567 -3.049035 7.866117 -4.818876 -0.986294 -7.090005 -19.513993 -11.013649 -14.124556 7.976778 -14.306590 24.672611 3.033600 -7.177800 9.508000 -0.580673 0.060746 1.784756 -96.758707 5.796632 20.851575 21.157443 -30.971023 -3.406271 2.326243 5.505684 2.008114 16.919663 29.178592 6.072600 -7.125000 0.000000 0.000000 -15.006400 53.702100 -3.268000 -2.087488 -0.542753 0.712924 90.709509 -1.414046 15.528449 -19.219796 25.857385 -2.623260 -1.843722 0.341673 -5.664940 -22.515859 12.900789 -4.681200 7.125000 0.000000 0.000000 4.534100 -16.664900 3.053100 
17.303213 18.391814 -10.029649 -8.051912 -5.821901 1.464878 14.830834 3.611505 -1.988429 -32.276004 -8.450165 -7.681526 9.122973 12.692552 44.376745 1.818868 -11.064257 -44.640727 0.002500 0.324100 0.890400 -11.246687 -3.822836 -1.401581 47.502183 6.292515 -8.194458 -8.792639 -12.711481 43.068725 -0.040465 13.468058 -36.965161 -0.443500 -4.272900 11.845700 -4.669527 -2.614602 -0.365920 22.622806 -3.081675 8.073828 -4.643387 -0.967157 -7.079440 -19.421377 -10.909783 -13.796253 8.083595 -14.209311 24.145912 3.087900 -7.123600 9.350000 -0.574308 0.072665 1.747423 -96.735211 5.689120 21.172534 21.082327 -30.866814 -3.391107 2.463446 5.474063 1.116659 18.244215 28.819481 6.468300 -7.125000 0.000000 0.000000 -13.779900 53.627800 -2.967300 -2.056301 -0.527658 0.688285 90.684786 -1.426226 15.660649 -19.273561 25.934496 -2.643530 -1.842987 0.324117 -5.890192 -22.486243 12.855556 -4.661500 7.125000 0.000000 0.000000 4.552800 -16.704000 3.061900 
17.303845 18.389827 -10.032448 -8.004248 -5.843553 1.303736 14.822558 3.597905 -1.997136 -32.317522 -8.277828 -7.532560 9.107854 12.670185 44.295647 1.783313 -11.136788 -44.544642 0.004500 0.433400 1.190900 -11.236949 -3.812198 -1.383788 47.427695 6.225461 -8.106978 -8.796391 -12.717606 43.113398 -0.025511 13.539728 -36.974055 -0.492500 -4.499700 12.486800 -4.728356 -2.612658 -0.351815 22.568914 -3.149800 8.400665 -4.566723 -0.959701 -7.160313 -19.342443 -10.828411 -13.747304 8.084855 -14.103026 23.951682 3.107300 -7.073100 9.293900 -0.566711 0.092097 1.715120 -96.774431 5.627809 21.430974 21.039866 -30.850092 -3.396545 2.623637 5.420606 0.147397 19.780282 28.286546 6.895300 -7.125000 0.000000 0.000000 -12.311200 53.444200 -2.587400 -2.065614 -0.540051 0.662995 90.682910 -1.365764 15.846988 -19.315213 26.033241 -2.673117 -1.862145 0.244894 -6.283887 -22.661605 12.224859 -4.489500 7.125000 0.000000 0.000000 4.429700 -17.289500 2.921800 
17.304567 18.390640 -10.032087 -7.933960 -5.868563 1.141612 14.811326 3.570406 -2.015841 -32.386387 -8.149690 -7.335218 9.082884 12.649133 44.227448 1.722276 -11.320850 -44.472109 0.012500 0.721500 1.982900 -11.232455 -3.797893 -1.398056 47.328698 6.083431 -7.988955 -8.797425 -12.720134 43.134610 0.011444 13.637788 -36.911333 -0.534500 -4.684400 13.010600 -4.780090 -2.594822 -0.254839 22.501058 -3.177527 8.579100 -4.505041 -0.948055 -7.261095 -19.340889 -10.739117 -13.780982 8.102992 -13.980716 23.994176 3.133100 -7.015500 9.293100 -0.555500 0.102424 1.704726 -96.796418 5.668044 21.655368 21.052576 -30.850869 -3.386114 2.501596 5.555294 -0.618885 19.362340 28.852081 6.868300 -7.125000 0.000000 0.000000 -12.886400 53.839900 -2.836900 -2.071707 -0.548797 0.649068 90.681139 -1.302431 15.833983 -19.247238 25.956491 -2.656091 -1.874623 0.230029 -6.162343 -22.791387 11.987370 -4.434600 7.125000 0.000000 0.000000 4.342800 -17.512400 2.842900 
17.304477 18.390550 -10.032539 -7.831657 -5.844650 0.968584 14.786659 3.543345 -2.024028 -32.457068 -8.021676 -7.176866 9.059507 12.634611 44.197062 1.650568 -11.546113 -44.403419 0.018500 0.879300 2.416700 -11.241019 -3.780657 -1.419548 47.233834 5.962639 -7.825779 -8.795666 -12.717389 43.124673 0.032335 13.683580 -36.867875 -0.566700 -4.821600 13.400300 -4.826390 -2.584409 -0.156976 22.326366 -3.220857 8.774323 -4.417075 -0.943422 -7.387471 -19.306060 -10.656469 -13.857481 8.164450 -13.879210 24.115077 3.158300 -6.959100 9.310600 -0.527551 0.111628 1.691451 -96.747967 5.725467 22.401864 21.003768 -30.736995 -3.347383 2.356427 5.785149 -2.715115 19.504264 29.613397 7.075800 -7.125000 0.000000 0.000000 -13.101700 54.485600 -3.093600 -2.061614 -0.554799 0.633140 90.686827 -1.248890 15.701780 -19.140830 25.808673 -2.610620 -1.847538 0.304984 -5.530985 -22.565464 12.447578 -4.539000 7.125000 0.000000 0.000000 4.492300 -17.099500 2.982100 
17.305199 18.390188 -10.035157 -7.962982 -5.755651 0.835246 14.766581 3.530424 -2.009980 -32.269696 -7.935630 -7.131632 9.062910 12.630975 44.234332 1.607034 -11.663925 -44.367123 0.010500 0.660500 1.815200 -11.228452 -3.773179 -1.405032 47.380476 5.860846 -7.678773 -8.781969 -12.715212 43.062515 -0.088519 13.382936 -37.059320 -0.433200 -4.223900 11.707400 -4.631867 -2.604843 -0.238243 22.244883 -3.328518 9.206917 -4.470035 -0.961964 -7.493814 -19.283531 -10.627735 -14.177584 8.285092 -13.840290 24.515616 3.171000 -6.917400 9.430500 -0.471735 0.129296 1.665367 -96.700761 5.625946 22.918232 20.886291 -30.603354 -3.312690 2.380844 5.830253 -4.092200 20.345710 29.397478 7.322400 -7.125000 0.000000 0.000000 -12.332100 54.436400 -2.892600 -2.068077 -0.587573 0.607467 90.751637 -1.154731 15.597423 -19.134579 25.830167 -2.602732 -1.801338 0.332265 -5.333334 -22.126255 12.644634 -4.509000 7.125000 0.000000 0.000000 4.770500 -16.949500 3.183700 
17.306554 18.390911 -10.038498 -8.119135 -5.677053 0.832142 14.762156 3.530963 -1.983212 -32.101423 -8.038344 -7.182631 9.087636 12.651109 44.330287 1.630641 -11.575855 -44.391738 0.004200 0.417800 1.147900 -11.219477 -3.777661 -1.393249 47.545836 5.825142 -7.651694 -8.764583 -12.704030 42.984353 -0.153159 13.235870 -37.164224 -0.349000 -3.795900 10.503200 -4.450016 -2.620471 -0.341781 22.282491 -3.383228 9.424663 -4.554841 -0.974615 -7.537689 -19.336589 -10.567483 -14.615344 8.381414 -13.743860 25.240287 3.186800 -6.852300 9.632400 -0.430408 0.138128 1.666254 -96.709498 5.502358 22.925768 20.790624 -30.520147 -3.290950 2.432942 5.797488 -4.086423 20.623046 29.152859 7.362700 -7.125000 0.000000 0.000000 -12.008500 54.274500 -2.767300 -2.080111 -0.620328 0.608305 90.811092 -1.086318 15.503625 -19.143751 25.875964 -2.611138 -1.789092 0.291098 -5.579897 -21.962478 12.320696 -4.367700 7.125000 0.000000 0.000000 4.869300 -17.271300 3.215700 
17.307005 18.390008 -10.041839 -8.228528 -5.709285 0.876254 14.764395 3.531687 -1.979815 -31.988052 -8.111347 -7.252610 9.109540 12.675548 44.430694 1.646317 -11.500664 -44.391347 0.005400 0.476100 1.308200 -11.217198 -3.775332 -1.375140 47.661795 5.957017 -7.659740 -8.747942 -12.686671 42.933213 -0.033987 13.535831 -36.911639 -0.488300 -4.480800 12.433500 -4.373514 -2.587237 -0.339614 22.382774 -3.337996 9.401437 -4.613445 -0.957189 -7.561006 -19.371427 -10.447650 -14.924698 8.463772 -13.577739 25.865397 3.217600 -6.758500 9.788000 -0.417993 0.137671 1.686045 -96.715699 5.493698 22.977301 20.743485 -30.470612 -3.279878 2.475696 5.808433 -4.149270 20.925817 29.212188 7.490900 -7.125000 0.000000 0.000000 -11.778800 54.383700 -2.744800 -2.098273 -0.629618 0.631676 90.830317 -1.084025 15.684120 -19.112273 25.848955 -2.617342 -1.829586 0.217917 -6.150900 -22.273532 11.774689 -4.251600 7.125000 0.000000 0.000000 4.669300 -17.768400 3.031800 
17.308269 18.387570 -10.043735 -8.429233 -5.752958 0.829378 14.760830 3.514774 -1.996404 -31.767680 -8.069227 -7.216681 9.122048 12.685883 44.500221 1.635795 -11.520455 -44.390499 0.008200 0.583300 1.602900 -11.196077 -3.768652 -1.348243 47.842373 5.991699 -7.602823 -8.726340 -12.676064 42.887645 0.046550 13.747551 -36.716716 -0.654100 -5.173100 14.403000 -4.172434 -2.541793 -0.294438 22.479211 -3.316153 9.545179 -4.719056 -0.941770 -7.647327 -19.254667 -10.322259 -15.216751 8.380370 -13.384355 26.256387 3.203800 -6.664800 9.879900 -0.404019 0.145990 1.690935 -96.738954 5.465480 22.785773 20.704901 -30.437694 -3.263489 2.405455 5.796743 -3.534932 20.113445 29.291529 7.206000 -7.125000 0.000000 0.000000 -12.488600 54.296700 -2.887400 -2.136410 -0.650810 0.639990 90.845216 -1.091115 15.989453 -19.121293 25.887579 -2.635898 -1.860721 0.157156 -6.626171 -22.546641 11.340310 -4.161600 7.125000 0.000000 0.000000 4.491800 -18.161600 2.876800 
